<mxfile host="app.diagrams.net" modified="2023-07-04T16:15:40.155Z" agent="Mozilla/5.0 (Macintosh; Intel Mac OS X 10_15_7) AppleWebKit/537.36 (KHTML, like Gecko) Chrome/114.0.0.0 Safari/537.36" version="21.5.2" etag="TC9UgrGCVPd4vkv1PvoU" type="github">
  <diagram name="Page-1" id="A9PXi3v-7F96sE3il16Y">
    <mxGraphModel>
      <root>
        <mxCell id="0" />
        <mxCell id="1" parent="0" />
      </root>
    </mxGraphModel>
  </diagram>
</mxfile>
